<svg width="34" height="28" viewBox="0 0 34 28" fill="none" xmlns="http://www.w3.org/2000/svg">
<path d="M32.7008 9.35144C29.7805 8.32516 26.8601 7.33094 23.9398 6.30466C23.298 6.08016 22.8487 6.27259 22.1427 6.46502C21.3404 6.68952 20.4097 6.3688 19.8321 5.75944C19.5432 5.43873 19.2865 4.73316 18.9014 4.5728C14.8258 3.12959 10.718 1.71844 6.61029 0.307302C6.41774 0.243159 6.22519 0.211088 5.96845 0.179016C5.74381 0.852516 5.51917 1.49394 5.29453 2.16744C7.25212 4.05966 6.89911 7.2668 3.30484 7.9403C2.85556 9.2873 2.37418 10.6664 1.9249 12.0775C1.34725 13.8414 0.737508 15.6054 0.159858 17.3693C-0.128968 18.2994 -0.064784 18.4597 0.833783 18.8125C1.57189 19.1012 2.34209 19.3257 3.0802 19.5822C7.38049 21.0575 11.6808 22.5649 15.9811 24.0402C16.3341 24.1684 16.6871 24.2967 16.9759 24.3929C19.9604 22.2121 21.9501 22.9177 22.7524 26.3814C24.004 26.8304 25.3518 27.2794 26.6676 27.7284C27.2452 27.9208 27.6303 27.7284 27.8229 27.119C28.1438 26.0927 28.5289 25.0344 28.8819 23.9439C27.4378 23.0139 26.5071 21.7952 27.0848 20.0312C27.6624 18.2673 29.1066 17.7862 30.8074 17.9787C31.7381 15.2205 32.6367 12.4944 33.5673 9.70423C33.2785 9.64009 32.9897 9.47973 32.7008 9.35144ZM6.48192 16.9524C6.41774 17.1127 6.32146 17.2731 6.1931 17.4014C5.808 17.7862 5.19825 17.9787 4.65269 17.8183C3.97877 17.6259 3.56158 16.8882 3.62576 16.1827C3.62576 16.0864 3.65785 15.9902 3.68994 15.894C3.72204 15.7337 3.81831 15.6054 3.94668 15.4771C3.94668 15.445 3.97877 15.445 3.97877 15.4129C4.17132 15.2205 4.39596 15.0922 4.65269 14.996C4.68479 14.996 4.74897 14.9639 4.78106 14.9639C5.06989 14.8998 5.35871 14.8998 5.61545 14.996C5.808 15.0602 5.96845 15.1564 6.09682 15.3167C6.161 15.3809 6.22519 15.445 6.28937 15.5412C6.44983 15.7978 6.5461 16.0864 6.5782 16.3751C6.5782 16.5675 6.5461 16.7599 6.48192 16.9524ZM16.0132 11.8851C15.6281 12.1417 15.1788 12.302 14.6974 12.3341C14.6653 12.3341 14.6332 12.3341 14.6332 12.3341C14.4407 12.3341 14.2481 12.3341 14.0235 12.302C13.8309 12.2699 13.6063 12.2379 13.4137 12.1417C13.2212 12.0775 13.0607 11.9813 12.9003 11.8851C12.098 11.404 11.5845 10.506 11.4882 9.54387C11.4561 9.15901 11.4882 8.77416 11.6166 8.42137C11.745 8.06859 11.9054 7.77994 12.098 7.4913C12.1301 7.42716 12.1622 7.36302 12.1942 7.33094C12.3547 7.13852 12.5793 6.94609 12.7719 6.8178C12.9324 6.68952 13.1249 6.5933 13.2854 6.52916C13.9272 6.27259 14.6332 6.20844 15.3713 6.46502C16.5266 6.88194 17.2647 7.90823 17.3289 9.0628C17.361 9.44766 17.2968 9.86459 17.1685 10.2494C17.1043 10.4419 17.008 10.6343 16.9117 10.8267C16.7192 11.3078 16.3983 11.6285 16.0132 11.8851ZM18.6768 19.9671C17.6177 19.9671 16.7513 19.1012 16.7513 18.0428C16.7513 16.9844 17.6177 16.1185 18.6768 16.1185C19.7358 16.1185 20.6023 16.9844 20.6023 18.0428C20.6023 19.1012 19.7358 19.9671 18.6768 19.9671ZM26.9564 13.6169C26.8601 13.9697 26.6355 14.2584 26.3146 14.4508C26.2504 14.4829 26.1862 14.547 26.0899 14.5791C25.769 14.7074 25.416 14.7715 25.0951 14.6753C24.4212 14.4508 24.004 13.7773 24.0682 13.0717C24.0682 13.0397 24.0682 13.0397 24.0682 13.0076C24.0682 12.9434 24.1003 12.8472 24.1324 12.7831C24.1965 12.5907 24.2928 12.3982 24.4212 12.2699C24.6137 12.0454 24.8705 11.8851 25.1593 11.8209C25.4481 11.7568 25.7369 11.7568 26.0258 11.853C26.2183 11.9172 26.3788 12.0134 26.5071 12.1417C26.8601 12.4624 27.0527 12.9114 27.0206 13.3924C26.9885 13.4245 26.9885 13.5207 26.9564 13.6169Z" fill="#FD9339"/>
</svg>
